<svg xmlns="http://www.w3.org/2000/svg" width="241.167" height="35"><path fill="#d15d27" d="M21.813 0h219.354v35H21.813z"/><path fill="#e36d25" d="M0 0h112.5v35H0z"/><path d="M136.576 13.588h2.556L136.288 22h-2.567l-1.421-5.388L130.84 22h-2.556l-2.82-8.412h2.664l1.513 5.844 1.5-5.844h2.436l1.512 5.832zm12.187.412a4.2 4.2 0 011.644 1.554 4.239 4.239 0 01.593 2.222 4.323 4.323 0 01-.594 2.25 4.209 4.209 0 01-1.644 1.572 5.123 5.123 0 01-4.7 0 4.216 4.216 0 01-1.639-1.572 4.332 4.332 0 01-.594-2.25 4.248 4.248 0 01.594-2.226 4.2 4.2 0 011.641-1.55 5.174 5.174 0 014.7 0zm-3.337 1.812a2.186 2.186 0 00-.756.822 2.4 2.4 0 00-.281 1.158 2.439 2.439 0 00.281 1.164 2.223 2.223 0 00.756.834 1.856 1.856 0 001.026.306 1.776 1.776 0 001-.306 2.131 2.131 0 00.727-.828 2.559 2.559 0 00.264-1.17 2.533 2.533 0 00-.264-1.158 2.1 2.1 0 00-.721-.822 1.793 1.793 0 00-1.008-.3 1.883 1.883 0 00-1.024.296zM159.509 22l-1.116-2.269h-1.32V22h-2.5v-8.412h3.927a3.967 3.967 0 012.622.78 2.722 2.722 0 01.931 2.208 3.324 3.324 0 01-.366 1.6 2.716 2.716 0 01-1.05 1.074l1.7 2.748zm-2.437-4.188h1.428a1.192 1.192 0 00.87-.3 1.157 1.157 0 00.307-.864 1.12 1.12 0 00-.307-.846 1.207 1.207 0 00-.87-.294h-1.428zm14.899-3.702a3.813 3.813 0 011.59 1.476 4.246 4.246 0 01.563 2.2 4.2 4.2 0 01-.576 2.214 3.85 3.85 0 01-1.619 1.481 5.318 5.318 0 01-2.412.522h-3.6v-8.415h3.683a5.165 5.165 0 012.371.522zm-.918 5.322a2.4 2.4 0 00.527-1.62 2.34 2.34 0 00-.563-1.632 1.883 1.883 0 00-1.464-.624h-1.141v4.488h1.26a1.737 1.737 0 001.381-.612zm12.989-5.064a2.774 2.774 0 01.894 2.208 3.013 3.013 0 01-.894 2.327 3.577 3.577 0 01-2.526.828l-1.319.013V22h-2.5v-8.412h3.815a3.722 3.722 0 012.53.78zm-1.776 3.144a1.157 1.157 0 00.307-.864 1.12 1.12 0 00-.307-.846 1.207 1.207 0 00-.87-.294h-1.2v2.3h1.2a1.192 1.192 0 00.87-.296zM193.468 22l-1.116-2.269h-1.319V22h-2.5v-8.412h3.924a3.967 3.967 0 012.622.78 2.721 2.721 0 01.93 2.208 3.324 3.324 0 01-.366 1.6 2.716 2.716 0 01-1.05 1.074L196.3 22zm-2.436-4.188h1.428a1.192 1.192 0 00.87-.3 1.156 1.156 0 00.306-.864 1.12 1.12 0 00-.306-.846 1.207 1.207 0 00-.87-.294h-1.428zm8.844-4.224h6.876v1.92h-4.38v1.32h3.972v1.92h-3.972v1.332h4.5V22h-7zm15.407 2.04a4.255 4.255 0 00-1.319-.276.9.9 0 00-.51.126.413.413 0 00-.187.366.573.573 0 00.36.522 6.35 6.35 0 001.14.4 11.024 11.024 0 011.464.51 2.7 2.7 0 011 .786 2.148 2.148 0 01.426 1.392 2.366 2.366 0 01-.462 1.481 2.764 2.764 0 01-1.248.906 4.888 4.888 0 01-1.758.3 6.748 6.748 0 01-2.166-.366 6.03 6.03 0 01-1.878-1l.937-1.9a5.588 5.588 0 001.554.93 4.275 4.275 0 001.578.378 1.121 1.121 0 00.636-.155.508.508 0 00.229-.444.582.582 0 00-.372-.534 6.349 6.349 0 00-1.152-.39 10.54 10.54 0 01-1.452-.474 2.582 2.582 0 01-1-.762 2.081 2.081 0 01-.42-1.356 2.386 2.386 0 01.433-1.422 2.718 2.718 0 011.218-.93 4.768 4.768 0 011.83-.324 6.76 6.76 0 011.884.27 6.234 6.234 0 011.632.714l-.924 1.92a8.076 8.076 0 00-1.473-.668zm10.5 0a4.255 4.255 0 00-1.319-.276.9.9 0 00-.51.126.413.413 0 00-.187.366.573.573 0 00.36.522 6.35 6.35 0 001.14.4 11.024 11.024 0 011.464.51 2.7 2.7 0 011 .786 2.148 2.148 0 01.426 1.392 2.366 2.366 0 01-.462 1.481 2.764 2.764 0 01-1.248.906 4.888 4.888 0 01-1.758.3 6.748 6.748 0 01-2.166-.366 6.03 6.03 0 01-1.878-1l.937-1.9a5.588 5.588 0 001.554.93 4.275 4.275 0 001.578.378 1.121 1.121 0 00.636-.155.508.508 0 00.229-.444.582.582 0 00-.372-.534 6.349 6.349 0 00-1.152-.39 10.54 10.54 0 01-1.452-.474 2.582 2.582 0 01-1-.762 2.081 2.081 0 01-.42-1.356 2.386 2.386 0 01.433-1.422 2.718 2.718 0 011.218-.93 4.768 4.768 0 011.83-.324 6.76 6.76 0 011.884.27 6.234 6.234 0 011.632.714l-.924 1.92a8.076 8.076 0 00-1.473-.668zM13.867 22v-8.531h2.924a3.57 3.57 0 012.2.58 2.043 2.043 0 01.756 1.729 1.842 1.842 0 01-.316 1.055 2.037 2.037 0 01-.926.727 1.883 1.883 0 011.069.706 2.056 2.056 0 01.378 1.245 2.271 2.271 0 01-.771 1.846 3.35 3.35 0 01-2.202.643zm1.482-4.939H16.8a1.68 1.68 0 001.081-.313 1.074 1.074 0 00.39-.888 1.089 1.089 0 00-.36-.914 1.82 1.82 0 00-1.122-.281H15.35zm0 1.09V20.8H17a1.6 1.6 0 001.09-.344 1.206 1.206 0 00.393-.957 1.215 1.215 0 00-1.359-1.354zm14.969-4.682v5.7a2.771 2.771 0 01-.87 2.153 3.305 3.305 0 01-2.317.794 3.329 3.329 0 01-2.326-.782 2.784 2.784 0 01-.861-2.171v-5.7h1.477v5.7a1.809 1.809 0 00.434 1.3 1.7 1.7 0 001.277.45q1.711 0 1.711-1.8v-5.644zM36.1 22h-1.473v-8.531H36.1zm5.949-1.2h3.873V22h-5.356v-8.531h1.482zm12.613-6.136H52V22h-1.469v-7.336h-2.637v-1.2h6.768zm15.727 5.227l1.311-6.422h1.471L71.2 22h-1.415l-1.623-6.229L66.5 22h-1.42l-1.969-8.531h1.471l1.324 6.41 1.629-6.41h1.242zM78.46 22h-1.476v-8.531h1.476zm10.457-7.336h-2.66V22h-1.471v-7.336h-2.637v-1.2h6.768zM99.449 22h-1.476v-3.785h-3.815V22h-1.482v-8.531h1.482v3.551h3.814v-3.551h1.477z" fill="#fff"/></svg>